/* XPM */
static char *result[] = {
/* columns rows colors chars-per-pixel */
"32 32 156 2 ",
"   c #0E0714",
".  c #0F0715",
"X  c #100715",
"o  c #100816",
"O  c #100917",
"+  c #110917",
"@  c #120917",
"#  c #110A18",
"$  c #120A18",
"%  c #130A18",
"&  c #130B18",
"*  c #120A19",
"=  c #120B19",
"-  c #130B19",
";  c #150B19",
":  c #130D1A",
">  c #130D1B",
",  c #140C1A",
"<  c #150D1A",
"1  c #140D1B",
"2  c #150D1B",
"3  c #160D1B",
"4  c #150E1B",
"5  c #150E1C",
"6  c #160E1C",
"7  c #170F1D",
"8  c #17101C",
"9  c #18101D",
"0  c #19111F",
"q  c #1A111F",
"w  c #1A121E",
"e  c #1B1919",
"r  c #1A1020",
"t  c #191220",
"y  c #1A1220",
"u  c #1A1221",
"i  c #1B1321",
"p  c #1B1222",
"a  c #1C1221",
"s  c #1C1321",
"d  c #1D1423",
"f  c #1D1523",
"g  c #1E1523",
"h  c #1D1622",
"j  c #1D1623",
"k  c #1F1623",
"l  c #1E1624",
"z  c #1F1624",
"x  c #1E1724",
"c  c #1F1625",
"v  c #1E1526",
"b  c #201723",
"n  c #201725",
"m  c #211727",
"M  c #211824",
"N  c #211825",
"B  c #211926",
"V  c #211827",
"C  c #211927",
"Z  c #221927",
"A  c #231A26",
"S  c #221A28",
"D  c #231A28",
"F  c #221B28",
"G  c #221B29",
"H  c #231B29",
"J  c #251B28",
"K  c #251C29",
"L  c #251C2A",
"P  c #261D2A",
"I  c #261D2B",
"U  c #271E2A",
"Y  c #261D2C",
"T  c #271E2C",
"R  c #281E2A",
"E  c #281E2C",
"W  c #2A1F2D",
"Q  c #28202E",
"!  c #2A212F",
"~  c #2A2130",
"^  c #2C2330",
"/  c #2C2331",
"(  c #2D2331",
")  c #2E2431",
"_  c #2E2531",
"`  c #2D2433",
"'  c #2D2533",
"]  c #2F2533",
"[  c #322835",
"{  c #342936",
"}  c #352A39",
"|  c #342B39",
" . c #362D39",
".. c #372D3A",
"X. c #372D3B",
"o. c #362D3D",
"O. c #392F3C",
"+. c #392F3D",
"@. c #3A2F3C",
"#. c #3A2F3F",
"$. c #3B303E",
"%. c #3B313E",
"&. c #3B313F",
"*. c #3C323E",
"=. c #3D333E",
"-. c #3C333F",
";. c #3B3140",
":. c #3C3241",
">. c #3F3340",
",. c #3D3342",
"<. c #3E3441",
"1. c #3E3541",
"2. c #3E3442",
"3. c #3E3443",
"4. c #3E3444",
"5. c #3F3444",
"6. c #3F3544",
"7. c #3F3445",
"8. c #3F3545",
"9. c #403643",
"0. c #413744",
"q. c #403645",
"w. c #413745",
"e. c #403646",
"r. c #413746",
"t. c #403647",
"y. c #413747",
"u. c #423746",
"i. c #433747",
"p. c #423844",
"a. c #413847",
"s. c #423847",
"d. c #413749",
"f. c #423748",
"g. c #423848",
"h. c #433948",
"j. c #423849",
"k. c #433949",
"l. c #42384A",
"z. c #43384A",
"x. c #43394A",
"c. c #453A48",
"v. c #443A49",
"b. c #443A4A",
"n. c #443A4B",
"m. c #453B4B",
"M. c #473D4C",
"N. c #463C4D",
"B. c #473D4D",
"V. c #483D4C",
"C. c #BD4A08",
"Z. c #D66321",
"A. c #EF8C31",
"S. c #FFDE29",
"D. c #FFB542",
"F. c white",
/* pixels */
"%.%.2.v. .N * w O.5.z.C.C.C.C.r.5.~ C.- o 8 [ -.$.>.C.C.K . 2 2 ",
"=...,.s.b.W s 1 { &.C.C.Z.Z.C.y.i.C.C.C.p 3.0.3.4.C.C.x.V.K o 2 ",
"*.&.C.,.b.;.b 3 Y =.C.C.Z.Z.C.C.C.C.Z.C.| n.6.8.C.C.C.e.y.f.+ 2 ",
"e.q.C.C.C.C.J C.C.C.C.Z.A.Z.C.C.C.A.Z.C.C.C.C.Z.Z.C.e.e.e.B.d 2 ",
"h.8.7.C.Z.C.C.C.C.C.C.Z.A.A.Z.C.Z.A.Z.C.C.C.A.A.Z.C.C.e.t.M.C.2 ",
"h.e.k.d.Z.Z.Z.C.C.C.Z.A.A.D.A.A.A.D.Z.Z.C.Z.A.A.C.C.C.C.C.C.C.4 ",
"u.j.g.g.Z.A.A.Z.Z.A.D.A.Z.C.C.Z.Z.D.A.Z.Z.D.A.Z.Z.Z.Z.C.C.z q & ",
"x.x.g.a.C.Z.D.A.A.Z.Z.Z.Z.C.C.C.C.C.C.Z.A.D.Z.A.A.Z.Z.C.P E 0 + ",
"<.C.C.C.C.Z.D.A.Z.C.C.Z.C.C.Z.Z.C.C.C.e e Z.A.D.Z.Z.C.C.! H $ + ",
"L C.Z.Z.C.Z.A.Z.C.C.C.C.Z.Z.Z.A.Z.Z.A.S.e e C.C.Z.C.C.C.C.c $ $ ",
"J L C.Z.Z.A.A.e S.Z.Z.Z.Z.Z.A.A.A.A.A.Z.S.S.C.Z.A.Z.Z.C.C.C.C.- ",
"9 r C.C.Z.Z.e e S.Z.A.Z.A.Z.A.D.A.D.A.Z.Z.Z.C.Z.A.A.A.Z.Z.Z.C.C.",
"= % C.C.Z.A.e e S.Z.A.A.A.A.D.D.S.S.A.A.Z.C.C.C.Z.D.Z.Z.C.C.C.2 ",
"@.+.C.C.Z.e e S.Z.A.A.D.A.A.D.S.F.D.D.D.A.Z.C.Z.Z.C.Z.C.C.C.1 2 ",
"9.C.C.C.A.e e S.A.A.D.D.D.S.S.F.F.S.S.D.A.Z.C.Z.A.A.Z.C.C.C.# 2 ",
"p.Z.Z.Z.D.e S.Z.A.A.A.S.S.F.F.F.F.F.S.D.A.Z.C.C.Z.D.D.Z.C.C.% 2 ",
"w.C.C.Z.A.S.C.Z.A.D.D.S.F.F.F.F.F.S.D.A.A.A.Z.C.C.A.A.Z.Z.Z.C.C.",
"1.s.C.C.A.A.C.Z.Z.A.D.S.S.F.F.F.F.S.D.A.Z.C.C.Z.Z.Z.Z.Z.Z.C.C.C.",
"g B C.C.Z.A.C.Z.Z.A.A.D.F.S.F.F.F.S.D.A.Z.C.C.Z.A.Z.C.C.C.C.H > ",
"X @ C.C.Z.D.C.C.Z.Z.A.D.S.D.F.S.S.F.S.D.A.Z.C.S.D.D.Z.Z.C.C.C - ",
"O #.C.C.Z.D.D.C.Z.Z.Z.A.D.D.S.D.S.D.S.D.D.A.C.S.D.D.A.Z.C.C.C % ",
"a c.C.Z.Z.A.A.C.C.S.C.A.A.A.S.D.S.S.D.A.A.A.C.S.Z.A.A.A.C.C.C 5 ",
"h 4.C.Z.Z.A.A.C.e S.C.Z.Z.A.D.A.A.D.D.A.Z.Z.S.e Z.D.Z.Z.C.C.V q ",
"t C.C.C.C.Z.D.C.e e S.C.Z.A.D.A.Z.A.A.Z.Z.S.e e Z.A.Z.Z.Z.Z.C.d ",
"i C.X.t.C.C.Z.D.A.e e S.Z.Z.Z.Z.C.Z.A.Z.S.e e D.Z.C.C.C.C.C.C.C.",
"m T R ,.C.C.C.A.Z.C.Z.e S.C.C.C.C.C.Z.S.e e C.Z.C.C.C.l.3.A 0 k ",
"7 ] g _ N.C.Z.Z.C.C.A.D.D.A.Z.C.Z.C.C.Z.A.Z.Z.Z.Z.C.b.m.:.n 0 u ",
"o D o.Z ) C.Z.C.C.C.C.D.D.A.Z.Z.A.Z.Z.Z.D.Z.Z.A.D.Z.C.$.( z ; 6 ",
"2 + v } C.Z.C.L U C.C.A.Z.C.Z.Z.D.Z.C.A.A.Z.C.C.D.Z.C.M D Q 7 2 ",
"2 6   C.C.` ' / ^ ~ C.C.Z.C.C.Z.A.C.C.C.Z.Z.C.f C.Z.C.C.Q l - , ",
"2 2 6 C., 2 7 2 < 2 C.C.C.C.C.Z.C.C.s j Z.Z.- < : C.C.C.2 , 2 2 ",
"F G G G G G G G G G G C.C.C.C.Z.C.G G G C.C.C.S S S S C.C.I y x "
};
