/* XPM */
static char *result[] = {
/* columns rows colors chars-per-pixel */
"32 32 36 1 ",
"  c black",
". c #0D0614",
"X c #0E0815",
"o c #100715",
"O c #110917",
"+ c #140C1A",
"@ c #17101C",
"# c #19111F",
"$ c #1C1422",
"% c #201725",
"& c #211926",
"* c #241C2A",
"= c #291F2D",
"- c #29212E",
"; c #342E2E",
": c #2D2432",
"> c #312635",
", c #332936",
"< c #362C3A",
"1 c #392F3C",
"2 c #3B313E",
"3 c #543F21",
"4 c #3E3343",
"5 c #413646",
"6 c #413846",
"7 c #413748",
"8 c #44394A",
"9 c #483D4D",
"0 c #483E50",
"q c #4A4050",
"w c #695959",
"e c #987B4F",
"r c #B99B6D",
"t c #AA9696",
"y c #D4B0B0",
"u c white",
/* pixels */
"2246<&O#2674<6865=$+o+,22566*X++",
"2<468=$+,25217878,&o$46445779*o+",
"224482%@*23 3 3 3==O<854464767O+",
"664485*#$ eerere3$>@<424666459$@",
"044484=$#3r 3 3r :$+,>->485678%+",
"840864=$+ r3*% e3$.>2<>==18884@+",
"488481*=o3  *:3r X*4876,*%=>=%#+",
"88840<$=+X@##+ e3 446674,>==*=#O",
"40770*&*O>141 t  t 288881<17-*OO",
"*499:#:+:9744 wttw *>4<<442==%OO",
"**-$$:&+68778 wwww %&*&%%=*==X++",
"#$$*=*o>277  ; ww ;  $*:--*$X$++",
"+OX.OX%2<  ;;;;  ;;;;  $$Oo#$+@+",
"211<$X-4 w;;;;;;wwww;;; Oo>81$++",
"449q4O*6 w;;;;wwwwwwww; O$4,4<O+",
"66448$+ w;;;;;wwwtttww;; -4<11++",
"8449q$@ w;;;;yyyuuuttww; ><<5>#+",
"4884:# w;;;;wyyyuuuutww;; 1<5=$+",
"$*$X+@ w;;;wwyyyuuuuuww;; 24<&*+",
"XO:,44 w;;<wwwwyyttuyww;; 46*-&+",
"O2622< w;;;ww2wyywwyyw;;; 44&-&O",
"$81<<< w;;;wwwywwyyyyw;;; 44&-*+",
"$422;2 ww;;wwwwwyyyyw;;;; 41**&#",
"#,66668Xww;;wwwwwwww;;;w 766:&$$",
"$-<6667 ww;;w;w;w;;w;;;w 778<&$$",
"$-*47777 ww;;;;;;;;;;;w 67774&$$",
"#:$:9888 wwww;;;;;;;;ww 49884&#$",
"X*1*:4676  wwww;;;;ww  -:<42-$++",
"+X$<%&***-:  wwwwww  *::=$$$*-#+",
"+$X$>::::-=*=      =::$$$=--=$O+",
"++#O+++++++$+++#++$$$X++@+$+++++",
"-$**$********=$$******$**$$**=$$"
};
