/* XPM */
static char *result[] = {
/* columns rows colors chars-per-pixel */
"32 32 37 1 ",
"  c #0D0614",
". c #0E0815",
"X c #100715",
"o c #110917",
"O c #140C1A",
"+ c #180E1C",
"@ c #17101D",
"# c #19111E",
"$ c #1C1422",
"% c #201725",
"& c #221926",
"* c #241C2A",
"= c #281F2C",
"- c #29212E",
"; c #2D2432",
": c #312735",
"> c #332936",
", c #362C3A",
"< c #392F3C",
"1 c #3B313E",
"2 c #543F21",
"3 c #183048",
"4 c #3E3343",
"5 c #413646",
"6 c #423846",
"7 c #413748",
"8 c #44394A",
"9 c #483D4D",
"0 c #483E50",
"q c #4A4050",
"w c #B99B6D",
"e c #2F6580",
"r c #406880",
"t c #008BD1",
"y c #00A5F8",
"u c #70B8D0",
"i c white",
/* pixels */
"1146,%O#<474<4944;$o.@>11464=.OO",
"1,468=#O:44418488<*o$46446779*oO",
"114461%+*14444448-*o,844466677oO",
"664485*$$<44888q,$:@,444474769$O",
"044484=$$*;:;4q4$;$$:;-;486669%O",
"840464;$.--*$$*:;$ ;4<>-=<8674O@",
"488844$=.$$$*2ewewe4484,*%-:-$$o",
"40840,$=O.$$e22ewewu7484>:--**$o",
"40480*%*O;43r2222eeuq8651<<6;*oo",
"-480;$;+;973eqruiiuue4<<144**$Oo",
"**-*$=%+5777333333333;=&%=*==oOO",
"O$$*=*X3<77ruuuuuuuur%-3--*$ $Oo",
"Oo. o.%2<5ru55658uuuue+;$oo#$OOO",
"1<<,$.-5equ7<:<88uiiiuqeoo:61$OO",
"449q4o=3uueettyyyuiiiueur$1,4>OO",
"67448$3eueeytyyiiuiiiuyeuq4>4<OO",
"6878q*3rurttttyyyyuuutteuq,,4>@O",
"4686;-3ruettyttttttttyteue,44-&O",
"$%$oO@3ruetttttttyttttteur04,**O",
"Xo;3443euurettyttttytteurr08*-*.",
"o<81<,3quiurettttttyteuue344$-*.",
"$6<<,,<3riiureettttteuur3444&-$@",
"$411,<663rruureeeeeuuur3,844-**$",
"$:664677733rrrruuuurr33$4444;$$$",
"$=,646864443333333333$-<484q4$$$",
"%*=478684q444;O.@,48484<48484$$$",
"+;$;878844444-$O-4448q444q444$$$",
"o*<*;4484444<$@$--<44>-;><44;$O@",
"O.$4&&***-;;-$O@--$$$$;;-$$$*;@O",
"OO $:;;;;;-$;-@O$;;;;:$$$*;*-$oO",
"OO$oO++O@O$$@O@$.O$$$.O$$o$@OOO@",
"$**$*$****$*$*$$******$$*$$-$*$$"
};
