/* XPM */
static char *result[] = {
/* columns rows colors chars-per-pixel */
"32 32 29 1 ",
"  c #0D0614",
". c #0E0815",
"X c #100715",
"o c #110917",
"O c #140C1A",
"+ c #180E1D",
"@ c #17101D",
"# c #19111F",
"$ c #1C1422",
"% c #1F1826",
"& c #201724",
"* c #221926",
"= c #241C2A",
"- c #281F2C",
"; c #2A212E",
": c #2D2432",
"> c #312634",
", c #332936",
"< c #362C3A",
"1 c #382E3C",
"2 c #3B313E",
"3 c #3E3342",
"4 c #413646",
"5 c #423846",
"6 c #413748",
"7 c #43394A",
"8 c #483D4D",
"9 c #483E50",
"0 c #4A4050",
/* pixels */
"2235<*o#237323773:$oo@,22337= O+",
"2<347;$O,23317736<*o$34334778=.O",
"223372&O=22333737;-o,743373346o+",
"543374=$$1337778<$>@<333444448$O",
"933353-$#;:>:,82$:$$,:;:374438*+",
"739363;$o;;-=$*%:$ :3<>--17773OO",
"397733*-.+$$=:*;$ *3673<=*;>=%$o",
"37739<$-O.O##O#O %334463<;;-=-$.",
"39378=*=o:311,;% *:277742114:*oo",
";379:#:O:8643375;+$=>31<233==%oO",
"*=;=%:*+476647347:O$*=*&&-=;-.+o",
"$$$=;* >1667777672:oO$=:;;=$ ++O",
".o  ..$21343334373<=*Oo$$oo#$O+O",
"133,$ ;34473<,2872=;31#oo.>52%OO",
"36803.=444363<12,-=<<21O.$3<7,o+",
"53338$O27373573;=;>1<<3- ;2<1<oO",
"46678&+;7746771-:1<<<<1;O>1,4>#O",
"3764;#+*:48774:*,<<<<<2*O>2<4=*O",
"$*$oO+ #==,33:%*<<<<<12&+>23<**@",
"oo:,14- =;*$$%=,<<,,181$O<25=;%O",
"o1721<4- *:::,:,322377;+$333*;*o",
"$7<<<<13; X##+--><>,>;*O=513*;%+",
"#43211647,#X +$:-*=***# >633-=*#",
"#>4434644411%..+=*&#+X #3334:&$$",
"$;14346733373$OO  #%%$-137391*$$",
"*--3567477333-O.+<23474<37373*@%",
"+>$:777773333=+.;446676368773%@$",
"o*1*:3473133,*$$-=143>;=:131:%o+",
"+.%<&**-=;::-*+@:=&*%%:;-%$%*;@O",
"OO %>::::;-=-;OO&::-:>%$%=---$OO",
"OO+oO@+OO+$$$.O$OO$$@oOOOo+@OOOO",
"=%==%%=*=%%=*=$$=*=*=*%=%=*=*=#%"
};
