/* XPM */
static char *result[] = {
/* columns rows colors chars-per-pixel */
"32 32 102 2 ",
"   c #1C0A0E",
".  c #1D0C12",
"X  c #160A1A",
"o  c #1A0E1C",
"O  c #1A101F",
"+  c #220E0F",
"@  c #24110F",
"#  c #230E12",
"$  c #251112",
"%  c #2B1414",
"&  c #2E1915",
"*  c #22141E",
"=  c #2D1518",
"-  c #2E1A1A",
";  c #311614",
":  c #331A16",
">  c #3C1D16",
",  c #351C1A",
"<  c #3B1E1C",
"1  c #3A2016",
"2  c #37211A",
"3  c #3D231D",
"4  c #140F2E",
"5  c #1D1221",
"6  c #221625",
"7  c #241827",
"8  c #221729",
"9  c #24182A",
"0  c #291C2C",
"q  c #241A31",
"w  c #2D1E32",
"e  c #3E2421",
"r  c #3C252C",
"t  c #2E2133",
"y  c #332535",
"u  c #33263A",
"i  c #37283C",
"p  c #392B3F",
"a  c #44241E",
"s  c #4A261E",
"d  c #43291F",
"f  c #4D291E",
"g  c #532B1F",
"h  c #422520",
"j  c #492721",
"k  c #442A22",
"l  c #4C2B22",
"z  c #532D22",
"x  c #592F24",
"c  c #562F28",
"v  c #4D3126",
"b  c #4E3328",
"n  c #563125",
"m  c #5A3225",
"M  c #553629",
"N  c #5C3428",
"B  c #573929",
"V  c #5C3B2B",
"C  c #4C3133",
"Z  c #4A3038",
"A  c #5C3A38",
"S  c #613626",
"D  c #663926",
"F  c #613728",
"G  c #653A2A",
"H  c #6A3E2C",
"J  c #693F30",
"K  c #65432F",
"L  c #6E412D",
"P  c #664230",
"I  c #6C4632",
"U  c #6D4A34",
"Y  c #724732",
"T  c #724D36",
"R  c #784E35",
"E  c #775036",
"W  c #75513A",
"Q  c #7D553B",
"!  c #7F583D",
"~  c #372D43",
"^  c #3A2D43",
"/  c #3D2F48",
"(  c #3D3147",
")  c #3E3149",
"_  c #41344D",
"`  c #413553",
"'  c #473A52",
"]  c #4A3C53",
"[  c #4D3E59",
"{  c #503F5C",
"}  c #4F405D",
"|  c #53425E",
" . c #534361",
".. c #825036",
"X. c #82593D",
"o. c #885F41",
"O. c #8C6142",
"+. c #9B6D47",
"@. c #A3734B",
"#. c #BA8554",
"$. c #BF8858",
"%. c #746084",
/* pixels */
"- v v , , B B e h V M k e k j k , v k v < k b M k e M v V 3 , k ",
"d #.#.@., O.+.V , V l e = h h a $ 3 d k = h l V 3 M X.+.+., @.O.",
"3 $.Q V k $ - $ +   # $ = % # = = % = % ; # # .   $ 3 M . e +.X.",
". V P M v $ $ = < a a a a 3 , h h a a a , , a a j , . . - V G o.",
"k V % j   = 3 < z x z l g j < N m z z z < j z z z z < = . d U ! ",
"k #.e   & < z < l z z z z a < G x s s z < l z s z j < n , = 2 3 ",
"k +., # < f z , l z g c x a < F x s l g < l c s x s , G l   & E ",
"k +.+ # j z z , z z z c z a < D c z c x < z x z n s , F m $ k ! ",
"e I $ % x g m : x x g m m s < H x g m m < f m z S s : N S = , T ",
", k . % n l g ; s s a f f > % x s s f s ; a g s x a ; x s ; $ k ",
"l X.$ ^ _ ( ) ) _ [ ] ] [ [ [ [ ] ] [ [ | ' / ) ) / ) ( ` 0 1 W ",
"k R % O 9 9 9 9 9 t t y w w w w 0 t t 0 t 0 7 9 6 0 9 9 0 . 3 T ",
"k U % O 9 u 5 6 p 9 5 O p 0 6 o y i O 5 w i 5 7 5 ] 0 5 9 6 a U ",
"k U % 5 9 8 8 9 7 8 9 9 9 9 7 7 9 8 6 9 9 9 7 8 8 9 9 6 q o 1 T ",
"k E : . : % & @ % % ; % & $ $ : % % , % + % & ; = % # : &   2 U ",
"2 k $ $ G z S , n m m g S s 3 H S m S H a f m n x z < F S : . < ",
"2 n $ $ D x m : x n z z F j < D N m s L h l z x c l , F F # < Q ",
"k R % @ A r x , x n z l N j < G m m R F < l z x x z , N N # e ! ",
"k U $ + %.q a a x z n x n z < G m m ..K < l z f F l , F F # 3 Q ",
"k W = $ 8 4 C > n z z x c l < D m m N D a h S Y N z , F N $ 3 W ",
", k   & l Z H ; n x x m z g < H g L a S > a H ..N x ; D S $ 3 X.",
"e P $ $ G D l = l s f f s a : n a f n a : a x c z j , n c = % M ",
"k R % u ) / _ | } } | |  . . .{ | | | | |  . . . .~ ) / _ 0 % V ",
"d E % O 8 6 9 7 7 0 7 7 6 7 7 7 7 9 7 8 7 9 7 9 9 7 0 6 8 . d X.",
"d R & X p y O u ( O 7 5 u i 6 5 ^ u o ^ i 5 7 ' 5 9 p 5 _ y ; G ",
"k E % 5 8 8 8 9 8 6 6 5 9 8 7 8 7 8 5 8 8 8 8 8 9 8 8 8 q * % k ",
"k X.& $ < : % + & : : 2 - % @ : % % : : # = ; ; & $ $ : &   3 ! ",
"2 l . $ L H g < N m S L S l < L x f F D < l x S m s , D x ; 2 W ",
"3 V # = G L l , m n N s F j 3 P z f l m < l c c n s , F x $ d o.",
"d Q = # H G z , n z N x N a < G z l f m , l x x c j , F z $ = M ",
"k Q % # G J z : n z N n z a , G z z z n , l x c x s - N n $ : U ",
"e V % - J I z , N c N l z j e J m z n N h k n n N j e G m = 3 W "
};
