/* XPM */
static char *result[] = {
/* columns rows colors chars-per-pixel */
"32 32 35 1 ",
"  c #0F0715",
". c #0F0813",
"X c #100716",
"o c #110917",
"O c #150D1B",
"+ c #180F1E",
"@ c #17101E",
"# c #18101E",
"$ c #1C1422",
"% c #1E1825",
"& c #211727",
"* c #211927",
"= c #241C2B",
"- c #291F2E",
"; c #27202D",
": c #29212F",
"> c #2C2433",
", c #2F2834",
"< c #302735",
"1 c #312936",
"2 c #322738",
"3 c #342B3A",
"4 c #392F3D",
"5 c #37303F",
"6 c #3A313E",
"7 c #3A2E41",
"8 c #3D3343",
"9 c #413545",
"0 c #423847",
"q c #423649",
"w c #453A4B",
"e c #493E4F",
"r c #4A3E51",
"t c #4B4152",
"y c #55495D",
/* pixels */
"OOOoOOo#;;%ooOO @@o .oOOO#O ooOO",
"O#*$OO-9wtt7@O@3t8>>6;##-OO805*o",
"o*98##168tt8%o%twt8wt0=#@o0twt,X",
" ,86:X:,>15:$O;8w88ww6=%o8t0w8>o",
"o1646@@12>2:$O>8886tw1*%,tw0w3;#",
"O4446*o;2211$+>75,680;=@6rww0;1#",
"X:86,#o$>2>;Oo&:;;:3;*#@3884,=>o",
"+*,,*OOOOoooooooooooooooOooooO-O",
"O-==++8rw8r7O++OO$#+OOO+$#&OO*;O",
"+O-*O$:>772w%$$#+@@+OOOOO@*OO*1O",
"OOOOO:><>>>8$+++O++OO@+O@O#OO$,O",
"@+oo+>>>>>:r$&8r**q=O+##OO#OO+-O",
"OO%;O,,>>2>8*=;=w2=3O++#+OO+OO;O",
"O#59O>>>>>>r%%;=*4=&+O+OOOOOOOOO",
"O*09O>>>22;8%$;;--2>+$->>-&OOOOO",
"o=06O>,>>>;8$$;;--=9>+&==$>OOOOO",
"+%87+:>72>>7$$--->=3$+==&%&$+O$O",
"+;2:+:>>>>>q$$:;;;;2%+==&==$o$8O",
"o2;;+>>>:;%:$$=::=7=o+=====#O+>o",
"o:;;+:>>q788+$;;:;>>+$=====+O+>+",
"O;;:$;>>27>8O=;;::>7O$;====$O$>+",
"O%;>#=>:>>>8O*;;::-8+$-===&%o+>o",
"O%;%+%7877yr -==-:=8+$;;=:%Oo$>$",
"O+2%+=8r8:7&O====:=7+%===%>$o@2O",
"+oO>OO$OOOoOO$====*3#$=-=%=$o+>+",
"O+OOOOOOOOOOOOOOOO+O$#$$o+o++:=+",
"O%7,OO$$->,>%>qrqww9089w%Oo;17:O",
"O>39,$$,73318888ww86wwww=oO>377O",
"+;<484#*1,,39wew4>=26896;O#;383@",
"O3;;>3:+$=$-141:=;=*>,,*>@#3:>;%",
"O$,3,23,O#,>;;,>,w83>;;>$OO*3,5$",
"OOoO&*&@oOO&*=***#o#$*$OO@OoO$#o"
};
