/* XPM */
static char *result[] = {
/* columns rows colors chars-per-pixel */
"32 32 37 1 ",
"  c black",
". c #1E1006",
"X c #0E0614",
"o c #0E0815",
"O c #100715",
"+ c #110917",
"@ c #140C1A",
"# c #180E1C",
"$ c #17101C",
"% c #19111E",
"& c #371E0D",
"* c #1D1422",
"= c #201725",
"- c #221926",
"; c #241C2A",
": c #281F2C",
"> c #2A212E",
", c #2D2432",
"< c #312735",
"1 c #332936",
"2 c #362C3A",
"3 c #392F3C",
"4 c #3B313E",
"5 c #5B2F11",
"6 c #7D441D",
"7 c #3E3343",
"8 c #413646",
"9 c #423846",
"0 c #413748",
"q c #43394A",
"w c #483D4D",
"e c #483E50",
"r c #4A4050",
"t c #AC6534",
"y c #907858",
"u c #B79F7E",
"i c #E6D0B2",
/* pixels */
"44792=+%470728q98,*+O$144488;+##",
"4278q>%#1487490082-+*8877900w;X@",
"447794=$:4477987w>:+1q88888807o#",
"9877q8;*%4770q0w3*,$274788707w*#",
"e7q7q7:*%;,1,1 7*,* 1<>,7q980q*$",
"q7q787,*+,,;; t ,* t 21:>2qqw7@$",
"7qqq77-:o@** t6 *X t& 01;->,>**@",
"qqq7e2*;#o+* 65 X* 65 871<>>;;*o",
"7r7qe;-;+,7 65      5 q84248,;++",
";7qe,%,@,w0 &55&&&&65 32474;;=++",
";;>;*,-$9q00 5 55 555 ;*=>->:+@@",
"$**;>;X148q0 &6tt655& ;,>>:*X$@@",
"++XX+o*42797 &55555&& +*%++%*@@@",
"3771*X>78907 &u&&u& && +#O<87*@@",
"77wr7+;787787 &&&&  55& o*7201@@",
"9077q*@4080090    .. 65& >4243+@",
"900           5 ..... 65& 2281%#",
"7q0 iuuyyuyt655 ..... 65& 428;-+",
"*-%+ iyyuyu6&5& .&&... t5& 72;;@",
"++,17 iiiii&&&  &&&&&. 65& 0;>*@",
"+4q442         65&  &&    77->-+",
"*9222228,XX%*@ 5&   5& @:777->-@",
"%847248891%O+ t5& - &5& <074;;;%",
"%18878090842* 6& ;** t& 7789,=**",
"*>287800q77   6& X** 6& 700q2-$*",
"=::7q090q07 t6t& 14 555& w0q7;%-",
"#<*,wqqqq77 5&5& 70 6&6& w007-%*",
"+-3-,79q734      ;3     ,274,*@@",
"@+*2=-;;;>>,:;@$,---*;,,>***-,@@",
"$@o*<,,,,,>;:>@@;,,:,,***:,;:*+@",
"@$$@@@@@*@**@@@*@$***+@$$+*@@+@@",
":*;;*;;;*:*;*:**;*;;;;*;*;;*;:*-"
};
