/* XPM */
static char *result[] = {
/* columns rows colors chars-per-pixel */
"32 32 37 1 ",
"  c black",
". c #1E1006",
"X c #0D0614",
"o c #0E0815",
"O c #100715",
"+ c #110917",
"@ c #140C1A",
"# c #180E1D",
"$ c #17101D",
"% c #19111E",
"& c #371E0D",
"* c #1C1422",
"= c #201725",
"- c #221926",
"; c #241C2A",
": c #281F2C",
"> c #29212E",
", c #2D2432",
"< c #312634",
"1 c #332936",
"2 c #362C3A",
"3 c #392F3C",
"4 c #3B313E",
"5 c #5B2F11",
"6 c #7D441D",
"7 c #3D3343",
"8 c #413646",
"9 c #423846",
"0 c #413748",
"q c #443A4A",
"w c #483D4D",
"e c #483E50",
"r c #4A4050",
"t c #AC6534",
"y c #907858",
"u c #B79F7E",
"i c #E6D0B2",
/* pixels */
"44792-+%470747098,*@+$144788;+@@",
"4278q>*@1477400982-o*7877800w;+@",
"4477q4-@:4477988q>;@1q8888888q+@",
"9877q8;%%4770q0w2*<@274788878w*@",
"w777q7:*$;,1 1w7* **1<>,7q998w=@",
"q7w087>*@,> t -* t ,721>:3q9q7@@",
"0q00q7;:+@ &t ;: 6t 0001;->,>=*@",
"0q07e2%:@o 56 %@ 56 98971<>:;;%+",
"7q7ww;-;@, 5      56 qq84240>;@o",
">7qw,*,@,w 56&&&&55& 722474;:=O@",
";;>**>-$90 555 55 5 ;;-==:;:;@@@",
"$**>>;X148 &556tt6& @*:,,>;*o@@@",
"@+XX@X*427 &&55555& -@@%*++#*#@@",
"3371$X>78 && &u&&u& 82%O@+<93*@@",
"77rr7@;9 &55  &&&& 1243@X*7281@@",
"9077q*@ &56 ..    <2217:X>4242@@",
"800qw= &56 ..... 5           1*@",
"7007>% &56 ..... 556tyuyyuui :*@",
"*-*@@ &5t ...&&. &5&6uyuyyi 2;;@",
"++,<7 &56 .&&&&&  &&&iiiii 8;>*@",
"+4q422    &&  &56         77->*@",
"*9222228> &5   &5 1<,>-@:777*,;$",
"%8472408 &5& @ &5t -;;*X<774:;**",
"%1887809 &t *+@ &6 *#oX#7q07,-**",
"*>288800 &6 7*@ &6   *>3700q2;$*",
"=::790q &555 >@ &t6t q727q707;**",
"#<*,wwq &6&6 ;@ &5&5 w777eq07***",
"+-2;,789     -%      1>>,377,*@@",
"@+*2*-;;>>>,;;$$,-*-**,>>***;>@@",
"@$o*,,,,,>;;>>@$;,,,,,;*;;>>>*@@",
"@$*o@*@@*@**@@*$@@***+@$@+*@@@@@",
";*;;**;:*>*;*:***>*;;;*;;*;*;:**"
};
