/* XPM */
static char *result[] = {
/* columns rows colors chars-per-pixel */
"30 30 90 1 ",
"  c #14041E",
". c #1C061E",
"X c #230B1E",
"o c #280D1F",
"O c #2B101F",
"+ c #33161D",
"@ c #3E1C1C",
"# c #130320",
"$ c #1A0620",
"% c #1E0A22",
"& c #230C22",
"* c #290F21",
"= c #2C1323",
"- c #321624",
"; c #351925",
": c #3B1C23",
"> c #361C29",
", c #3B1E29",
"< c #3F2126",
"1 c #3E212A",
"2 c #421E1C",
"3 c #45211C",
"4 c #4A251E",
"5 c #4E291F",
"6 c #542B1F",
"7 c #5A2E1F",
"8 c #442224",
"9 c #4B2621",
"0 c #4D2924",
"q c #42252B",
"w c #47282B",
"e c #4C2B2B",
"r c #532C23",
"t c #592F22",
"y c #522F2B",
"u c #563124",
"i c #5B3325",
"p c #5F3827",
"a c #55322C",
"s c #5C3529",
"d c #5E392E",
"f c #4E3031",
"g c #533230",
"h c #593632",
"j c #5C3A31",
"k c #613626",
"l c #633927",
"z c #623729",
"x c #643B2A",
"c c #693E2C",
"v c #633D32",
"b c #693F30",
"n c #6C412D",
"m c #72452E",
"M c #754A2F",
"N c #674134",
"B c #6D4433",
"V c #6F4837",
"C c #654238",
"Z c #6A4538",
"A c #6B4839",
"S c #724631",
"D c #754A33",
"F c #7A4E35",
"G c #724B3A",
"H c #7A4F38",
"J c #7D5137",
"K c #7E5239",
"L c #7D5641",
"P c #835436",
"I c #8A5937",
"U c #82553A",
"Y c #86593C",
"T c #8A5C3D",
"R c #905F3D",
"E c #8F613E",
"W c #92623E",
"Q c #855C43",
"! c #8B5E41",
"~ c #905F41",
"^ c #8F6141",
"/ c #936442",
"( c #996742",
") c #976945",
"_ c #9B6B45",
"` c #9C6D49",
"' c #A06F46",
"] c #A37247",
"[ c #A2734A",
"{ c #A9774D",
/* pixels */
"P((((IWDmk&ozKUUQYY!R~~/RWIUDO",
"(/!T!/`^Pm=:]YYUPKPKFFFSSDSkmw",
"(TT!!YY~/c:q`IUUYPUYUTDgKPPNza",
"(E^/^YY/Ux::(YQYYQUPFD8GYzcpn:",
"DSDSFKFDxt;=DDSDDSnzktsLprrIF.",
"uuuruuuur@&X9czzdxzxzxBcxbmZX&",
"67@=:<:;;>;;=-:q=$&=$&;--;;%%%",
"66%N^(``_''_)__`[s%#=TTTY!Pzze",
"t9&T`/E/~/^^/^!T_]-&TJSDSBncnF",
"r2$Y`^^/~~U!/!!!E[e<(KPUUPDdxn",
"ii%K)Y!!!!/!G`TY/)y&WPYTYJFTMB",
"SPyaIisxccBDYYFKJJe.TDnxxzxkxj",
"IYZ:zr95494up9562cy ynrriiupSO",
"DIv8pzzsaur09099rv   :reyayc<X",
"mSco%&=>,qq1eAALQQAZhq<,:;-==&",
"SFFk9pzr5:&9){[[`)]`'(///WE(x%",
"STYFP!~Dk9&n{!KKKKHKKKKKKFFI; ",
"cY/_/!/Sr0*m'/KUYUUKPUUPPKFw-h",
"xT__`)/x5r*x`/PPPP!/KP!UKPFf(W",
"cY`_`/Qz5r=r!!PQYY//YYYYYYY)z:",
"lD/`)YUs59=9SmBSBncxcFBBDSFn3;",
"xxDUYPcrrr=9lr5545943942322@rv",
"lizrrr2222&+3348396ruutrrrr0G<",
"ti9=wwjNCvgegzvDFNw<q8wjZVVZN8",
"66oy]/_/_____)UYT8s8.B()`_`/Tc",
"76Xh(HPPKUPPPKYYJfKa&PYFPFKPDs",
"79$y_HPPUYUUUYHYYBp0XSEJKUPUnr",
"79$w/SPUHHHHJJNKKane%pYSKUFB94",
":3&-FikSDitiitBcuuSq.un9irrrrU",
"*=&&kmccSSMMcxkiipE&&@uspiirYv"
};
